<svg width="16" height="17" viewBox="0 0 16 17" fill="none" xmlns="http://www.w3.org/2000/svg">
<path d="M1.6256 3.70003H9.6V4.02003C9.6 4.27464 9.70115 4.51882 9.88118 4.69885C10.0612 4.87889 10.3054 4.98003 10.56 4.98003H11.84C12.0946 4.98003 12.3388 4.87889 12.5188 4.69885C12.6989 4.51882 12.8 4.27464 12.8 4.02003V3.70003H14.2912C14.3761 3.70003 14.4575 3.66631 14.5175 3.6063C14.5775 3.54629 14.6112 3.4649 14.6112 3.38003C14.6112 3.29516 14.5775 3.21377 14.5175 3.15376C14.4575 3.09374 14.3761 3.06003 14.2912 3.06003H12.8V2.74003C12.8 2.48542 12.6989 2.24124 12.5188 2.06121C12.3388 1.88117 12.0946 1.78003 11.84 1.78003H10.56C10.3054 1.78003 10.0612 1.88117 9.88118 2.06121C9.70115 2.24124 9.6 2.48542 9.6 2.74003V3.06003H1.6256C1.54073 3.06003 1.45934 3.09374 1.39933 3.15376C1.33932 3.21377 1.3056 3.29516 1.3056 3.38003C1.3056 3.4649 1.33932 3.54629 1.39933 3.6063C1.45934 3.66631 1.54073 3.70003 1.6256 3.70003ZM10.24 2.74003C10.24 2.65516 10.2737 2.57377 10.3337 2.51376C10.3937 2.45374 10.4751 2.42003 10.56 2.42003H11.84C11.9249 2.42003 12.0063 2.45374 12.0663 2.51376C12.1263 2.57377 12.16 2.65516 12.16 2.74003V4.02003C12.16 4.1049 12.1263 4.18629 12.0663 4.2463C12.0063 4.30631 11.9249 4.34003 11.84 4.34003H10.56C10.4751 4.34003 10.3937 4.30631 10.3337 4.2463C10.2737 4.18629 10.24 4.1049 10.24 4.02003V2.74003ZM14.336 13.3H11.52V12.98C11.52 12.7254 11.4189 12.4812 11.2388 12.3012C11.0588 12.1212 10.8146 12.02 10.56 12.02H9.28C9.02539 12.02 8.78122 12.1212 8.60118 12.3012C8.42115 12.4812 8.32 12.7254 8.32 12.98V13.3H1.632C1.54713 13.3 1.46574 13.3337 1.40573 13.3938C1.34572 13.4538 1.312 13.5352 1.312 13.62C1.312 13.7049 1.34572 13.7863 1.40573 13.8463C1.46574 13.9063 1.54713 13.94 1.632 13.94H8.32V14.26C8.32 14.5146 8.42115 14.7588 8.60118 14.9389C8.78122 15.1189 9.02539 15.22 9.28 15.22H10.56C10.8146 15.22 11.0588 15.1189 11.2388 14.9389C11.4189 14.7588 11.52 14.5146 11.52 14.26V13.94H14.336C14.4209 13.94 14.5023 13.9063 14.5623 13.8463C14.6223 13.7863 14.656 13.7049 14.656 13.62C14.656 13.5352 14.6223 13.4538 14.5623 13.3938C14.5023 13.3337 14.4209 13.3 14.336 13.3ZM10.88 14.26C10.88 14.3449 10.8463 14.4263 10.7863 14.4863C10.7263 14.5463 10.6449 14.58 10.56 14.58H9.28C9.19513 14.58 9.11374 14.5463 9.05373 14.4863C8.99372 14.4263 8.96 14.3449 8.96 14.26V12.98C8.96 12.8952 8.99372 12.8138 9.05373 12.7538C9.11374 12.6937 9.19513 12.66 9.28 12.66H10.56C10.6449 12.66 10.7263 12.6937 10.7863 12.7538C10.8463 12.8138 10.88 12.8952 10.88 12.98V14.26ZM5.44 10.1H6.72C6.97461 10.1 7.21879 9.99889 7.39883 9.81885C7.57886 9.63882 7.68 9.39464 7.68 9.14003V8.82003H14.368C14.4529 8.82003 14.5343 8.78631 14.5943 8.7263C14.6543 8.66629 14.688 8.5849 14.688 8.50003C14.688 8.41516 14.6543 8.33377 14.5943 8.27375C14.5343 8.21374 14.4529 8.18003 14.368 8.18003H7.68V7.86003C7.68 7.60542 7.57886 7.36124 7.39883 7.18121C7.21879 7.00117 6.97461 6.90003 6.72 6.90003H5.44C5.1854 6.90003 4.94122 7.00117 4.76118 7.18121C4.58115 7.36124 4.48 7.60542 4.48 7.86003V8.18003H1.664C1.57913 8.18003 1.49774 8.21374 1.43773 8.27375C1.37772 8.33377 1.344 8.41516 1.344 8.50003C1.344 8.5849 1.37772 8.66629 1.43773 8.7263C1.49774 8.78631 1.57913 8.82003 1.664 8.82003H4.48V9.14003C4.48 9.39464 4.58115 9.63882 4.76118 9.81885C4.94122 9.99889 5.1854 10.1 5.44 10.1ZM5.12 7.86003C5.12 7.77516 5.15372 7.69377 5.21373 7.63375C5.27374 7.57374 5.35513 7.54003 5.44 7.54003H6.72C6.80487 7.54003 6.88627 7.57374 6.94628 7.63375C7.00629 7.69377 7.04 7.77516 7.04 7.86003V9.14003C7.04 9.2249 7.00629 9.30629 6.94628 9.3663C6.88627 9.42632 6.80487 9.46003 6.72 9.46003H5.44C5.35513 9.46003 5.27374 9.42632 5.21373 9.3663C5.15372 9.30629 5.12 9.2249 5.12 9.14003V7.86003Z" fill="#1E1E1E"/>
</svg>
